<?xml version="1.0" encoding="UTF-8"?>
<svg id="Warstwa_1" data-name="Warstwa 1" xmlns="http://www.w3.org/2000/svg" viewBox="0 0 200 199">
  <defs>
    <style>
      .cls-1 {
        fill: #ccd1d5;
      }
    </style>
  </defs>
  <path id="path12" class="cls-1" d="m99.76,198.7c-.34-.63-66.81-132.7-66.81-132.75,0-.03,30.18-.05,67.06-.05s67.06.02,67.06.05c0,.1-66.9,132.95-67,133.04-.06.05-.18-.06-.3-.29h0Zm-30.25-111.09l15.24,30.1,15.24,30.28.19-.37c.11-.21,6.97-13.83,15.25-30.28h0s15.05-29.72,15.05-29.72h-60.98ZM13.92,27.65C7.34,14.57,1.51,2.99.98,1.93L0,0h12.23s12.95,0,12.95,0l7.6,15.1,7.6,15.1h119.29l7.6-15.1,7.6-15.1h12.27s12.86,0,12.86,0l-.98,1.93c-.54,1.06-6.36,12.63-12.95,25.72l-11.97,23.79H25.89l-11.97-23.79Z"/>
</svg>
